<?xml version="1.0" encoding="UTF-8" standalone="no"?>
<svg
   viewBox="0 0 77.760483 77.76869"
   version="1.1"
   id="svg1"
   sodipodi:docname="default-music-icon.svg"
   width="77.760483"
   height="77.768692"
   inkscape:version="1.4 (86a8ad7, 2024-10-11)"
   xmlns:inkscape="http://www.inkscape.org/namespaces/inkscape"
   xmlns:sodipodi="http://sodipodi.sourceforge.net/DTD/sodipodi-0.dtd"
   xmlns="http://www.w3.org/2000/svg"
   xmlns:svg="http://www.w3.org/2000/svg">
  <defs
     id="defs1" />
  <sodipodi:namedview
     id="namedview1"
     pagecolor="#ffffff"
     bordercolor="#000000"
     borderopacity="0.25"
     inkscape:showpageshadow="2"
     inkscape:pageopacity="0.0"
     inkscape:pagecheckerboard="0"
     inkscape:deskcolor="#d1d1d1"
     inkscape:zoom="1.1145218"
     inkscape:cx="170.4767"
     inkscape:cy="281.28655"
     inkscape:window-width="1920"
     inkscape:window-height="1009"
     inkscape:window-x="1912"
     inkscape:window-y="-8"
     inkscape:window-maximized="1"
     inkscape:current-layer="svg1" />
  <!--!Font Awesome Free 6.7.1 by @fontawesome - https://fontawesome.com License - https://fontawesome.com/license/free Copyright 2024 Fonticons, Inc.-->
  <path
     fill="#ffffff"
     d="m 75.801286,0.9650217 c 1.230196,0.9112551 1.959199,2.369262 1.959199,3.9032129 V 15.8033 55.898552 c 0,6.712919 -6.530667,12.150075 -14.580089,12.150075 -8.049426,0 -14.580093,-5.437156 -14.580093,-12.150075 0,-6.712916 6.530667,-12.150073 14.580093,-12.150073 1.70101,0 3.341272,0.242997 4.860031,0.69863 V 22.333967 L 29.160182,33.998043 v 31.620571 c 0,6.712919 -6.53067,12.150075 -14.580093,12.150075 C 6.5306637,77.768689 0,72.331533 0,65.618614 0,58.905695 6.5306637,53.468538 14.580089,53.468538 c 1.701011,0 3.341273,0.243 4.860031,0.698629 V 30.383393 19.448324 c 0,-2.141451 1.412444,-4.039902 3.462773,-4.662594 L 71.503196,0.20564064 c 1.473199,-0.44044052 3.067895,-0.16706292 4.29809,0.75938106 z"
     id="path1"
     style="fill:#ffffff;fill-opacity:1;stroke-width:0.151876" />
</svg>
